<svg width="1142" height="779" viewBox="0 0 1142 779" fill="none" xmlns="http://www.w3.org/2000/svg">
<path d="M708.965 8.38997L156.995 186.267C142.92 190.803 133.786 204.393 134.902 219.139L171.041 696.885C172.569 717.084 192.243 730.799 211.724 725.245L952.233 514.125C971.564 508.614 981.086 486.855 972.019 468.916L747.339 24.412C740.234 10.3551 723.956 3.55887 708.965 8.38997Z" fill="#F3CFA7"/>
<g filter="url(#filter0_d_1_32)">
<rect x="270" y="99" width="626" height="446" rx="14" fill="white"/>
</g>
<g filter="url(#filter1_d_1_32)">
<rect x="330" y="185" width="111" height="137" rx="3" fill="white"/>
</g>
<g filter="url(#filter2_d_1_32)">
<rect x="747" y="421" width="132" height="243" rx="3" fill="white"/>
</g>
<g filter="url(#filter3_d_1_32)">
<rect x="475" y="185" width="225" height="137" rx="3" fill="white"/>
</g>
<g filter="url(#filter4_d_1_32)">
<rect x="330" y="361" width="225" height="157" rx="3" fill="white"/>
</g>
<g filter="url(#filter5_d_1_32)">
<rect x="583" y="361" width="117" height="157" rx="3" fill="white"/>
</g>
<g filter="url(#filter6_d_1_32)">
<rect x="783" y="134" width="225" height="125" rx="3" fill="white"/>
</g>
<rect x="350" y="208" width="72" height="65" fill="#F1C12D"/>
<rect x="766" y="460" width="93" height="115" fill="#F1C12D"/>
<rect x="496" y="211" width="185" height="62" fill="#E5E5E5"/>
<rect x="353" y="390" width="185" height="62" fill="#E5E5E5"/>
<rect x="599" y="390" width="86" height="88" fill="#E5E5E5"/>
<rect x="805" y="156" width="98" height="78" fill="#E5E5E5"/>
<g filter="url(#filter7_d_1_32)">
<rect x="253.603" y="550" width="178" height="145" rx="24" transform="rotate(25.5784 253.603 550)" fill="white"/>
<circle cx="384.619" cy="638.765" r="8.5" transform="rotate(25.5784 384.619 638.765)" fill="#DC8E43"/>
<path d="M257.137 623.022L259.85 624.321C260.719 624.737 261.506 624.933 262.21 624.909C262.92 624.874 263.54 624.651 264.068 624.24C264.614 623.823 265.062 623.25 265.41 622.522C265.725 621.864 265.874 621.221 265.858 620.592C265.858 619.957 265.668 619.375 265.286 618.846C264.91 618.305 264.328 617.846 263.541 617.47C262.919 617.172 262.284 617.02 261.638 617.013C260.991 617.007 260.402 617.151 259.872 617.446C259.341 617.74 258.924 618.204 258.62 618.839L253.529 616.402C254.203 614.992 255.167 613.945 256.419 613.259C257.682 612.579 259.095 612.252 260.656 612.278C262.217 612.303 263.767 612.684 265.306 613.421C267.044 614.253 268.43 615.263 269.464 616.45C270.503 617.626 271.129 618.929 271.34 620.358C271.551 621.787 271.274 623.3 270.509 624.898C270.121 625.708 269.557 626.405 268.816 626.988C268.08 627.56 267.214 627.983 266.217 628.256C265.237 628.523 264.161 628.6 262.988 628.486C261.821 628.361 260.615 628 259.37 627.404L255.847 625.718L257.137 623.022ZM255.29 626.881L256.547 624.256L260.07 625.942C261.468 626.611 262.619 627.357 263.525 628.18C264.43 629.003 265.097 629.886 265.527 630.828C265.962 631.758 266.168 632.715 266.144 633.7C266.126 634.673 265.884 635.647 265.417 636.621C264.844 637.819 264.103 638.779 263.195 639.499C262.293 640.208 261.271 640.685 260.128 640.932C258.996 641.184 257.797 641.217 256.53 641.029C255.269 640.829 253.986 640.418 252.682 639.794C251.602 639.276 250.609 638.621 249.705 637.827C248.817 637.027 248.094 636.125 247.535 635.121C246.994 634.111 246.69 633.027 246.623 631.87C246.574 630.706 246.853 629.489 247.46 628.221L252.551 630.658C252.237 631.316 252.12 631.982 252.201 632.656C252.283 633.33 252.541 633.952 252.976 634.521C253.423 635.095 254.004 635.554 254.721 635.897C255.531 636.285 256.294 636.47 257.01 636.452C257.744 636.427 258.392 636.218 258.956 635.824C259.538 635.424 260.003 634.86 260.351 634.132C260.801 633.192 260.99 632.359 260.92 631.632C260.855 630.894 260.569 630.237 260.065 629.664C259.56 629.09 258.873 628.595 258.004 628.179L255.29 626.881ZM289.948 638.663L287.823 643.102C286.901 645.028 285.9 646.592 284.82 647.793C283.746 648.982 282.607 649.837 281.405 650.359C280.22 650.874 278.997 651.09 277.738 651.007C276.479 650.924 275.203 650.573 273.911 649.955C272.878 649.46 271.976 648.87 271.207 648.184C270.444 647.487 269.839 646.685 269.393 645.778C268.958 644.877 268.687 643.874 268.581 642.77C268.492 641.659 268.599 640.44 268.902 639.112C269.205 637.785 269.728 636.346 270.47 634.796L272.595 630.356C273.517 628.43 274.512 626.879 275.581 625.701C276.667 624.518 277.803 623.668 278.988 623.153C280.185 622.643 281.41 622.436 282.664 622.53C283.923 622.614 285.199 622.964 286.491 623.583C287.524 624.077 288.417 624.671 289.169 625.362C289.937 626.048 290.548 626.838 291 627.733C291.452 628.628 291.723 629.631 291.812 630.742C291.907 631.841 291.802 633.054 291.499 634.381C291.201 635.697 290.684 637.124 289.948 638.663ZM282.411 641.334L285.185 635.538C285.63 634.611 285.965 633.775 286.191 633.031C286.428 632.293 286.563 631.636 286.593 631.059C286.63 630.47 286.574 629.953 286.427 629.507C286.279 629.061 286.052 628.677 285.743 628.357C285.435 628.036 285.052 627.766 284.594 627.547C284.018 627.271 283.454 627.138 282.901 627.148C282.359 627.163 281.818 627.344 281.276 627.691C280.741 628.026 280.196 628.56 279.644 629.292C279.109 630.017 278.566 630.955 278.015 632.106L275.241 637.902C274.797 638.83 274.453 639.669 274.21 640.419C273.978 641.174 273.841 641.852 273.799 642.452C273.775 643.047 273.827 643.57 273.957 644.022C274.105 644.468 274.333 644.852 274.641 645.172C274.961 645.499 275.35 645.772 275.808 645.991C276.372 646.261 276.925 646.388 277.466 646.373C278.025 646.352 278.575 646.167 279.116 645.82C279.675 645.467 280.225 644.922 280.765 644.185C281.306 643.447 281.855 642.497 282.411 641.334Z" fill="black"/>
<path d="M308.89 649.457L304.503 658.622L302.537 657.681L308.012 646.244L309.872 647.134L308.89 649.457ZM307.046 652.278L306.152 651.811C306.534 651.032 306.982 650.358 307.496 649.791C308.014 649.216 308.585 648.774 309.208 648.466C309.832 648.159 310.497 648.009 311.203 648.018C311.912 648.02 312.648 648.203 313.409 648.567C313.944 648.823 314.4 649.137 314.777 649.508C315.157 649.872 315.435 650.295 315.611 650.778C315.787 651.26 315.846 651.799 315.786 652.394C315.726 652.989 315.525 653.646 315.181 654.365L311.533 661.986L309.577 661.05L313.179 653.524C313.466 652.925 313.593 652.397 313.561 651.94C313.536 651.486 313.379 651.09 313.09 650.753C312.804 650.408 312.415 650.118 311.922 649.882C311.344 649.605 310.812 649.477 310.327 649.495C309.841 649.514 309.396 649.648 308.992 649.896C308.587 650.144 308.221 650.475 307.893 650.89C307.575 651.301 307.293 651.763 307.046 652.278ZM314.972 654.746L313.469 654.52C313.776 653.897 314.167 653.343 314.641 652.86C315.122 652.38 315.661 652.005 316.257 651.736C316.86 651.471 317.506 651.343 318.195 651.352C318.887 651.354 319.596 651.529 320.322 651.876C320.935 652.169 321.438 652.51 321.833 652.898C322.235 653.29 322.517 653.732 322.679 654.225C322.851 654.715 322.898 655.261 322.817 655.864C322.737 656.466 322.524 657.127 322.18 657.846L318.583 665.361L316.617 664.42L320.224 656.883C320.531 656.242 320.667 655.696 320.631 655.246C320.606 654.792 320.444 654.407 320.145 654.091C319.856 653.771 319.462 653.491 318.961 653.252C318.532 653.046 318.116 652.938 317.714 652.927C317.312 652.917 316.935 652.988 316.585 653.141C316.238 653.286 315.926 653.496 315.647 653.77C315.376 654.047 315.151 654.373 314.972 654.746ZM329.142 656.358L323.667 667.795L321.701 666.854L327.176 655.417L329.142 656.358ZM328.48 652.312C328.631 651.995 328.855 651.773 329.15 651.645C329.451 651.521 329.793 651.55 330.173 651.732C330.547 651.911 330.78 652.157 330.873 652.47C330.972 652.786 330.946 653.103 330.795 653.42C330.65 653.723 330.423 653.935 330.114 654.056C329.815 654.172 329.479 654.142 329.106 653.963C328.725 653.781 328.487 653.537 328.391 653.231C328.305 652.921 328.335 652.615 328.48 652.312ZM333.068 661.238L328.762 670.233L326.807 669.297L332.281 657.86L334.131 658.746L333.068 661.238ZM331.242 663.859L330.443 663.437C330.824 662.659 331.286 661.992 331.829 661.438C332.375 660.876 332.97 660.446 333.615 660.149C334.26 659.851 334.928 659.703 335.62 659.705C336.323 659.704 337.019 659.868 337.71 660.199C338.273 660.469 338.744 660.789 339.12 661.16C339.501 661.524 339.77 661.947 339.929 662.43C340.094 662.917 340.135 663.465 340.051 664.074C339.971 664.676 339.75 665.355 339.389 666.109L335.802 673.603L333.836 672.662L337.433 665.146C337.72 664.547 337.861 664.026 337.857 663.582C337.856 663.132 337.726 662.744 337.465 662.42C337.208 662.089 336.832 661.806 336.339 661.57C335.853 661.337 335.36 661.226 334.86 661.239C334.368 661.254 333.891 661.372 333.43 661.593C332.976 661.818 332.557 662.124 332.172 662.511C331.798 662.895 331.488 663.344 331.242 663.859Z" fill="black"/>
<path d="M253.399 656.264L255.376 657.21L254.412 672.171L265.449 662.032L267.437 662.983L253.812 675.378L252.269 674.64L253.399 656.264ZM252.755 655.956L254.499 656.79L250.291 666.313L247.417 672.317L245.388 671.346L252.755 655.956ZM266.327 662.452L268.071 663.287L260.704 678.677L258.675 677.706L261.549 671.702L266.327 662.452ZM268.636 682.734C267.84 682.353 267.182 681.873 266.662 681.295C266.152 680.713 265.783 680.064 265.554 679.348C265.332 678.636 265.259 677.882 265.337 677.088C265.414 676.293 265.645 675.494 266.029 674.691L266.242 674.247C266.687 673.317 267.221 672.555 267.843 671.96C268.469 671.359 269.139 670.918 269.854 670.636C270.569 670.355 271.288 670.227 272.012 670.253C272.736 670.279 273.418 670.446 274.06 670.753C274.877 671.144 275.514 671.622 275.971 672.187C276.435 672.756 276.736 673.385 276.874 674.074C277.015 674.757 277.013 675.484 276.869 676.255C276.729 677.019 276.466 677.803 276.082 678.606L275.662 679.484L267.121 675.395L267.885 673.799L274.47 676.951L274.541 676.803C274.756 676.283 274.886 675.739 274.932 675.172C274.986 674.608 274.893 674.079 274.653 673.583C274.414 673.088 273.96 672.68 273.291 672.359C272.847 672.147 272.392 672.046 271.928 672.058C271.467 672.062 271.014 672.183 270.571 672.422C270.128 672.66 269.706 673.008 269.305 673.466C268.904 673.923 268.538 674.497 268.208 675.188L267.995 675.632C267.736 676.175 267.565 676.721 267.484 677.271C267.413 677.817 267.436 678.339 267.552 678.837C267.676 679.338 267.897 679.79 268.215 680.194C268.54 680.6 268.971 680.932 269.506 681.188C270.197 681.519 270.849 681.658 271.463 681.605C272.077 681.553 272.677 681.377 273.262 681.076L273.996 682.584C273.571 682.839 273.087 683.045 272.544 683.201C272.002 683.357 271.402 683.408 270.744 683.353C270.093 683.301 269.39 683.095 268.636 682.734ZM280.116 688.228C279.319 687.847 278.661 687.368 278.141 686.79C277.631 686.208 277.262 685.559 277.033 684.843C276.811 684.131 276.739 683.377 276.816 682.582C276.893 681.788 277.124 680.989 277.508 680.186L277.721 679.742C278.166 678.811 278.7 678.049 279.322 677.455C279.948 676.854 280.618 676.412 281.333 676.131C282.048 675.85 282.768 675.722 283.491 675.748C284.215 675.774 284.898 675.94 285.539 676.247C286.356 676.638 286.994 677.117 287.451 677.682C287.915 678.25 288.215 678.879 288.353 679.569C288.494 680.251 288.493 680.978 288.349 681.75C288.208 682.514 287.946 683.298 287.561 684.101L287.141 684.978L278.6 680.89L279.364 679.294L285.95 682.446L286.02 682.298C286.235 681.777 286.366 681.233 286.412 680.666C286.465 680.103 286.372 679.573 286.133 679.078C285.894 678.582 285.439 678.174 284.77 677.854C284.326 677.641 283.872 677.541 283.407 677.552C282.946 677.557 282.494 677.678 282.051 677.916C281.607 678.155 281.185 678.503 280.784 678.96C280.383 679.418 280.018 679.992 279.687 680.683L279.475 681.127C279.215 681.669 279.044 682.216 278.963 682.766C278.892 683.312 278.915 683.834 279.032 684.332C279.156 684.833 279.377 685.285 279.695 685.688C280.02 686.095 280.45 686.427 280.985 686.683C281.676 687.013 282.328 687.152 282.943 687.1C283.557 687.047 284.156 686.871 284.742 686.571L285.475 688.078C285.05 688.334 284.566 688.54 284.024 688.696C283.481 688.852 282.881 688.902 282.223 688.847C281.572 688.796 280.87 688.589 280.116 688.228ZM297.213 682.095L296.494 683.596L290.311 680.636L291.029 679.135L297.213 682.095ZM294.453 677.357L296.408 678.293L290.959 689.677C290.774 690.065 290.694 690.386 290.719 690.64C290.744 690.895 290.837 691.1 290.997 691.254C291.157 691.409 291.346 691.538 291.564 691.643C291.727 691.72 291.902 691.787 292.092 691.843C292.292 691.896 292.443 691.933 292.545 691.956L291.791 693.557C291.613 693.532 291.386 693.48 291.113 693.401C290.842 693.332 290.531 693.214 290.179 693.045C289.699 692.816 289.305 692.51 288.994 692.127C288.683 691.745 288.515 691.274 288.487 690.715C288.471 690.153 288.645 689.492 289.009 688.73L294.453 677.357ZM301.631 684.21L296.157 695.647L294.191 694.706L299.665 683.269L301.631 684.21ZM300.969 680.164C301.121 679.847 301.344 679.625 301.639 679.497C301.941 679.373 302.282 679.402 302.663 679.585C303.036 679.763 303.269 680.009 303.362 680.322C303.462 680.638 303.436 680.955 303.284 681.272C303.139 681.575 302.912 681.787 302.603 681.908C302.305 682.025 301.969 681.994 301.595 681.815C301.215 681.633 300.976 681.389 300.88 681.083C300.795 680.773 300.824 680.467 300.969 680.164ZM305.557 689.09L301.252 698.085L299.296 697.149L304.771 685.712L306.62 686.598L305.557 689.09ZM303.731 691.711L302.933 691.29C303.314 690.511 303.776 689.844 304.319 689.29C304.865 688.728 305.46 688.299 306.105 688.001C306.75 687.703 307.418 687.556 308.11 687.558C308.812 687.556 309.509 687.72 310.199 688.051C310.763 688.321 311.233 688.641 311.61 689.012C311.99 689.376 312.26 689.799 312.418 690.282C312.584 690.769 312.625 691.317 312.541 691.926C312.46 692.529 312.24 693.207 311.879 693.961L308.292 701.455L306.326 700.514L309.923 692.999C310.21 692.4 310.351 691.878 310.347 691.435C310.346 690.984 310.215 690.596 309.954 690.272C309.697 689.941 309.322 689.658 308.829 689.422C308.342 689.189 307.85 689.079 307.35 689.091C306.858 689.106 306.381 689.224 305.92 689.446C305.466 689.67 305.047 689.976 304.662 690.364C304.288 690.747 303.978 691.197 303.731 691.711ZM324.146 694.987L325.922 695.837L320.564 707.03C320.081 708.038 319.466 708.8 318.716 709.316C317.967 709.832 317.138 710.098 316.23 710.114C315.325 710.14 314.397 709.925 313.446 709.47C313.051 709.281 312.616 708.995 312.142 708.612C311.67 708.239 311.248 707.781 310.876 707.239C310.507 706.707 310.267 706.112 310.158 705.454L311.74 704.782C311.943 705.589 312.251 706.23 312.664 706.705C313.085 707.184 313.552 707.546 314.067 707.792C314.687 708.089 315.278 708.229 315.84 708.212C316.403 708.196 316.917 708.017 317.383 707.677C317.852 707.348 318.246 706.852 318.563 706.19L322.762 697.416L324.146 694.987ZM313.473 697.063L313.579 696.841C313.998 695.967 314.479 695.223 315.024 694.609C315.58 693.991 316.174 693.518 316.808 693.189C317.449 692.864 318.114 692.697 318.802 692.688C319.494 692.673 320.188 692.832 320.886 693.166C321.605 693.51 322.171 693.937 322.585 694.447C323.01 694.954 323.294 695.536 323.438 696.194C323.593 696.848 323.619 697.562 323.517 698.336C323.415 699.11 323.204 699.94 322.884 700.826L322.418 701.799C321.939 702.6 321.427 703.282 320.881 703.843C320.342 704.408 319.769 704.836 319.163 705.126C318.563 705.419 317.932 705.563 317.268 705.557C316.607 705.544 315.914 705.363 315.188 705.016C314.504 704.689 313.953 704.247 313.535 703.692C313.124 703.14 312.845 702.509 312.7 701.798C312.555 701.088 312.546 700.33 312.672 699.524C312.808 698.715 313.075 697.894 313.473 697.063ZM315.535 697.777L315.429 697.999C315.155 698.569 314.956 699.132 314.829 699.686C314.709 700.244 314.678 700.77 314.735 701.265C314.8 701.764 314.97 702.214 315.246 702.614C315.525 703.008 315.929 703.331 316.458 703.584C317.106 703.894 317.708 704.013 318.262 703.941C318.816 703.868 319.325 703.666 319.787 703.333C320.257 703.003 320.688 702.608 321.082 702.147L322.302 699.599C322.41 699.175 322.469 698.744 322.479 698.307C322.499 697.866 322.45 697.444 322.331 697.041C322.223 696.634 322.026 696.258 321.74 695.914C321.455 695.569 321.065 695.279 320.572 695.043C320.037 694.786 319.521 694.678 319.026 694.718C318.54 694.755 318.082 694.907 317.65 695.177C317.228 695.443 316.836 695.801 316.473 696.251C316.121 696.697 315.808 697.206 315.535 697.777Z" fill="black"/>
</g>
<g filter="url(#filter8_d_1_32)">
<path d="M133.407 339.551C141.896 329.591 157.983 332.556 162.365 344.887L205.565 466.479C209.946 478.81 199.335 491.26 186.465 488.889L59.5635 465.505C46.6936 463.134 41.2171 447.719 49.7059 437.759L133.407 339.551Z" fill="#3D69C4"/>
</g>
<g filter="url(#filter9_d_1_32)">
<path d="M993.463 94.9272C988.817 82.693 999.158 70.0175 1012.08 72.1113L1078.39 82.8601C1091.31 84.954 1097.12 100.247 1088.84 110.387L1046.38 162.443C1038.1 172.584 1021.96 169.966 1017.31 157.732L993.463 94.9272Z" fill="#3D69C4"/>
</g>
<rect x="117" y="73.7658" width="147" height="158" rx="16" transform="rotate(-29.6701 117 73.7658)" fill="#F1C12D"/>
<path d="M218.609 128.574C218.428 128.255 218.218 128.001 217.978 127.81C217.745 127.615 217.45 127.483 217.092 127.415C216.735 127.347 216.283 127.342 215.736 127.401C215.192 127.449 214.525 127.561 213.737 127.739C212.872 127.932 212.051 128.067 211.271 128.146C210.495 128.214 209.772 128.195 209.103 128.089C208.43 127.976 207.829 127.752 207.301 127.416C206.768 127.073 206.321 126.583 205.958 125.947C205.6 125.318 205.404 124.67 205.372 124.005C205.346 123.336 205.471 122.675 205.745 122.022C206.023 121.358 206.439 120.732 206.994 120.145C207.545 119.55 208.227 119.021 209.04 118.558C210.185 117.905 211.293 117.555 212.362 117.508C213.438 117.457 214.402 117.662 215.254 118.122C216.114 118.578 216.789 119.238 217.281 120.101L214.64 121.605C214.349 121.096 213.984 120.709 213.543 120.445C213.106 120.17 212.603 120.044 212.036 120.068C211.476 120.087 210.863 120.286 210.198 120.665C209.569 121.024 209.1 121.417 208.792 121.846C208.483 122.274 208.319 122.71 208.299 123.152C208.28 123.594 208.387 124.02 208.62 124.43C208.785 124.72 209.004 124.947 209.275 125.111C209.542 125.268 209.872 125.37 210.265 125.418C210.653 125.459 211.107 125.449 211.625 125.388C212.142 125.327 212.731 125.217 213.389 125.057C214.39 124.824 215.297 124.682 216.11 124.631C216.92 124.572 217.648 124.617 218.293 124.764C218.939 124.911 219.509 125.172 220.003 125.546C220.493 125.913 220.916 126.407 221.27 127.03C221.641 127.68 221.844 128.342 221.881 129.014C221.913 129.679 221.79 130.335 221.512 130.98C221.236 131.615 220.816 132.225 220.25 132.809C219.687 133.383 218.992 133.905 218.164 134.377C217.422 134.8 216.634 135.118 215.8 135.33C214.973 135.539 214.151 135.609 213.334 135.541C212.514 135.465 211.757 135.222 211.064 134.811C210.367 134.393 209.785 133.774 209.318 132.954L211.98 131.437C212.266 131.939 212.595 132.319 212.966 132.576C213.344 132.828 213.753 132.979 214.193 133.028C214.629 133.07 215.082 133.028 215.553 132.9C216.031 132.768 216.506 132.568 216.98 132.298C217.602 131.943 218.072 131.559 218.388 131.144C218.712 130.726 218.889 130.297 218.92 129.858C218.951 129.419 218.847 128.991 218.609 128.574ZM231.762 121.081C231.58 120.763 231.37 120.508 231.13 120.317C230.897 120.122 230.602 119.99 230.244 119.922C229.887 119.854 229.435 119.849 228.888 119.908C228.344 119.956 227.677 120.069 226.889 120.246C226.025 120.439 225.203 120.575 224.423 120.653C223.647 120.721 222.924 120.702 222.255 120.596C221.582 120.483 220.981 120.259 220.453 119.923C219.92 119.58 219.473 119.09 219.11 118.454C218.752 117.825 218.556 117.177 218.524 116.512C218.498 115.843 218.623 115.182 218.897 114.529C219.175 113.865 219.591 113.24 220.146 112.652C220.697 112.057 221.379 111.528 222.192 111.065C223.337 110.412 224.445 110.062 225.514 110.015C226.59 109.964 227.554 110.169 228.406 110.629C229.266 111.086 229.941 111.745 230.433 112.608L227.792 114.112C227.502 113.603 227.136 113.217 226.695 112.953C226.258 112.678 225.755 112.552 225.188 112.575C224.628 112.595 224.015 112.794 223.351 113.172C222.721 113.531 222.252 113.924 221.944 114.353C221.635 114.782 221.471 115.217 221.452 115.659C221.432 116.101 221.539 116.527 221.772 116.937C221.938 117.227 222.156 117.454 222.427 117.618C222.694 117.775 223.024 117.877 223.417 117.925C223.806 117.966 224.259 117.956 224.777 117.895C225.295 117.834 225.883 117.724 226.541 117.564C227.542 117.332 228.449 117.189 229.262 117.138C230.072 117.079 230.8 117.124 231.446 117.271C232.091 117.418 232.661 117.679 233.155 118.053C233.646 118.42 234.068 118.915 234.422 119.537C234.793 120.187 234.997 120.849 235.033 121.521C235.065 122.186 234.942 122.842 234.664 123.488C234.389 124.122 233.968 124.732 233.402 125.316C232.839 125.89 232.144 126.413 231.316 126.884C230.574 127.307 229.786 127.625 228.952 127.838C228.125 128.047 227.303 128.117 226.486 128.048C225.666 127.972 224.909 127.729 224.216 127.318C223.519 126.9 222.937 126.281 222.47 125.461L225.132 123.944C225.418 124.447 225.747 124.826 226.118 125.083C226.496 125.336 226.905 125.487 227.345 125.536C227.781 125.578 228.235 125.535 228.705 125.407C229.183 125.276 229.658 125.075 230.132 124.805C230.754 124.45 231.224 124.066 231.54 123.652C231.864 123.233 232.041 122.804 232.072 122.365C232.103 121.926 231.999 121.498 231.762 121.081ZM241.639 113.093L237.62 115.383L236.417 113.273L240.437 110.983C241.137 110.584 241.638 110.148 241.941 109.676C242.243 109.204 242.38 108.714 242.353 108.205C242.328 107.685 242.169 107.167 241.875 106.651C241.597 106.163 241.235 105.766 240.788 105.458C240.344 105.14 239.832 104.972 239.252 104.956C238.671 104.941 238.031 105.132 237.331 105.531L234.128 107.356L241.717 120.678L239.055 122.194L230.257 106.751L236.123 103.409C237.318 102.729 238.453 102.363 239.529 102.312C240.608 102.249 241.579 102.465 242.44 102.957C243.297 103.443 243.996 104.16 244.536 105.107C245.104 106.104 245.372 107.085 245.34 108.049C245.309 109.013 244.981 109.925 244.357 110.786C243.74 111.644 242.834 112.412 241.639 113.093Z" fill="white"/>
<ellipse rx="8.49006" ry="8.45653" transform="matrix(0.997273 -0.0737994 0.0688979 0.997624 150.002 80.5101)" fill="white"/>
<path d="M183.831 96.8797L186.451 95.402C187.29 94.9286 187.902 94.3966 188.286 93.806C188.664 93.204 188.836 92.5686 188.803 91.8998C188.775 91.2132 188.562 90.5184 188.165 89.8152C187.807 89.1801 187.366 88.6891 186.841 88.3421C186.322 87.9774 185.736 87.7997 185.083 87.809C184.424 87.807 183.715 88.0202 182.955 88.4488C182.354 88.7879 181.865 89.2204 181.489 89.7465C181.113 90.2725 180.894 90.8374 180.831 91.4411C180.767 92.0448 180.909 92.6528 181.254 93.2653L176.338 96.0384C175.57 94.6775 175.265 93.2876 175.421 91.8688C175.589 90.4436 176.131 89.0988 177.047 87.8345C177.964 86.5701 179.165 85.5189 180.65 84.6809C182.329 83.7341 183.951 83.1779 185.517 83.0122C187.077 82.8351 188.502 83.07 189.794 83.7168C191.085 84.3636 192.166 85.4582 193.036 87.0006C193.477 87.7832 193.724 88.6454 193.777 89.5873C193.824 90.5178 193.673 91.4699 193.325 92.4435C192.982 93.3993 192.428 94.3249 191.662 95.2203C190.89 96.1042 189.903 96.8853 188.701 97.5634L185.299 99.4825L183.831 96.8797ZM185.932 100.605L184.502 98.0705L187.905 96.1514C189.254 95.3901 190.526 94.8747 191.719 94.6052C192.913 94.3357 194.018 94.295 195.036 94.4832C196.048 94.66 196.95 95.0406 197.743 95.6248C198.53 96.1977 199.188 96.9548 199.719 97.8962C200.372 99.053 200.733 100.21 200.802 101.367C200.865 102.512 200.67 103.624 200.217 104.702C199.774 105.773 199.113 106.774 198.233 107.704C197.346 108.623 196.273 109.438 195.014 110.148C193.971 110.736 192.864 111.174 191.695 111.459C190.531 111.728 189.377 111.803 188.234 111.685C187.096 111.549 186.034 111.177 185.048 110.567C184.066 109.94 183.23 109.014 182.539 107.789L187.455 105.016C187.813 105.651 188.292 106.128 188.891 106.448C189.49 106.768 190.147 106.913 190.863 106.883C191.59 106.847 192.299 106.634 192.991 106.243C193.774 105.802 194.363 105.283 194.759 104.686C195.159 104.071 195.36 103.42 195.361 102.732C195.366 102.026 195.171 101.321 194.774 100.618C194.262 99.711 193.689 99.0779 193.053 98.719C192.41 98.3488 191.709 98.206 190.95 98.2906C190.19 98.3752 189.391 98.6542 188.552 99.1276L185.932 100.605ZM215.46 78.971L217.878 83.2581C218.927 85.1181 219.634 86.8348 219.998 88.4083C220.356 89.9705 220.404 91.3937 220.141 92.6778C219.884 93.9442 219.36 95.0695 218.57 96.0535C217.779 97.0375 216.76 97.8814 215.513 98.5851C214.515 99.148 213.514 99.5478 212.512 99.7845C211.503 100.01 210.499 100.045 209.5 99.8913C208.512 99.7307 207.536 99.3772 206.57 98.8308C205.609 98.2666 204.672 97.4796 203.758 96.47C202.845 95.4603 201.966 94.2069 201.122 92.7098L198.704 88.4228C197.655 86.5628 196.955 84.8574 196.603 83.3066C196.257 81.738 196.212 80.3205 196.47 79.0541C196.738 77.7813 197.271 76.6585 198.068 75.6858C198.858 74.7018 199.877 73.8579 201.125 73.1543C202.123 72.5913 203.121 72.2004 204.118 71.9814C205.121 71.7448 206.119 71.6978 207.111 71.8406C208.104 71.9835 209.08 72.337 210.041 72.9012C210.996 73.454 211.93 74.2353 212.843 75.2449C213.75 76.2433 214.622 77.4853 215.46 78.971ZM213.327 86.6777L210.17 81.0807C209.665 80.1848 209.172 79.431 208.693 78.8194C208.225 78.2015 207.763 77.7144 207.308 77.3581C206.846 76.9905 206.391 76.7393 205.941 76.6043C205.491 76.4694 205.046 76.4362 204.607 76.5048C204.167 76.5734 203.726 76.7325 203.284 76.982C202.728 77.2954 202.295 77.6814 201.986 78.14C201.688 78.5922 201.526 79.1396 201.5 79.7823C201.467 80.4136 201.592 81.1653 201.875 82.0374C202.162 82.8918 202.619 83.8747 203.246 84.9862L206.403 90.5831C206.908 91.4791 207.398 92.2417 207.873 92.8711C208.358 93.494 208.835 93.9949 209.303 94.3738C209.776 94.735 210.235 94.9919 210.68 95.1446C211.13 95.2796 211.574 95.3127 212.014 95.2441C212.465 95.1691 212.912 95.0069 213.354 94.7574C213.898 94.4503 214.32 94.0707 214.618 93.6185C214.921 93.1486 215.085 92.5923 215.111 91.9496C215.143 91.2892 215.011 90.5262 214.717 89.6605C214.423 88.7947 213.96 87.8005 213.327 86.6777ZM235.455 68.7015L237.864 72.9715L220.886 82.5481L218.478 78.278L235.455 68.7015ZM225.507 65.4554L235.678 83.4882L231.034 86.1078L220.863 68.075L225.507 65.4554Z" fill="white"/>
<defs>
<filter id="filter0_d_1_32" x="229" y="74" width="708" height="528" filterUnits="userSpaceOnUse" color-interpolation-filters="sRGB">
<feFlood flood-opacity="0" result="BackgroundImageFix"/>
<feColorMatrix in="SourceAlpha" type="matrix" values="0 0 0 0 0 0 0 0 0 0 0 0 0 0 0 0 0 0 127 0" result="hardAlpha"/>
<feOffset dy="16"/>
<feGaussianBlur stdDeviation="20.5"/>
<feComposite in2="hardAlpha" operator="out"/>
<feColorMatrix type="matrix" values="0 0 0 0 0.862745 0 0 0 0 0.556863 0 0 0 0 0.262745 0 0 0 0.25 0"/>
<feBlend mode="normal" in2="BackgroundImageFix" result="effect1_dropShadow_1_32"/>
<feBlend mode="normal" in="SourceGraphic" in2="effect1_dropShadow_1_32" result="shape"/>
</filter>
<filter id="filter1_d_1_32" x="320" y="185" width="131" height="157" filterUnits="userSpaceOnUse" color-interpolation-filters="sRGB">
<feFlood flood-opacity="0" result="BackgroundImageFix"/>
<feColorMatrix in="SourceAlpha" type="matrix" values="0 0 0 0 0 0 0 0 0 0 0 0 0 0 0 0 0 0 127 0" result="hardAlpha"/>
<feOffset dy="10"/>
<feGaussianBlur stdDeviation="5"/>
<feComposite in2="hardAlpha" operator="out"/>
<feColorMatrix type="matrix" values="0 0 0 0 0 0 0 0 0 0 0 0 0 0 0 0 0 0 0.25 0"/>
<feBlend mode="normal" in2="BackgroundImageFix" result="effect1_dropShadow_1_32"/>
<feBlend mode="normal" in="SourceGraphic" in2="effect1_dropShadow_1_32" result="shape"/>
</filter>
<filter id="filter2_d_1_32" x="737" y="421" width="152" height="263" filterUnits="userSpaceOnUse" color-interpolation-filters="sRGB">
<feFlood flood-opacity="0" result="BackgroundImageFix"/>
<feColorMatrix in="SourceAlpha" type="matrix" values="0 0 0 0 0 0 0 0 0 0 0 0 0 0 0 0 0 0 127 0" result="hardAlpha"/>
<feOffset dy="10"/>
<feGaussianBlur stdDeviation="5"/>
<feComposite in2="hardAlpha" operator="out"/>
<feColorMatrix type="matrix" values="0 0 0 0 0 0 0 0 0 0 0 0 0 0 0 0 0 0 0.25 0"/>
<feBlend mode="normal" in2="BackgroundImageFix" result="effect1_dropShadow_1_32"/>
<feBlend mode="normal" in="SourceGraphic" in2="effect1_dropShadow_1_32" result="shape"/>
</filter>
<filter id="filter3_d_1_32" x="465" y="185" width="245" height="157" filterUnits="userSpaceOnUse" color-interpolation-filters="sRGB">
<feFlood flood-opacity="0" result="BackgroundImageFix"/>
<feColorMatrix in="SourceAlpha" type="matrix" values="0 0 0 0 0 0 0 0 0 0 0 0 0 0 0 0 0 0 127 0" result="hardAlpha"/>
<feOffset dy="10"/>
<feGaussianBlur stdDeviation="5"/>
<feComposite in2="hardAlpha" operator="out"/>
<feColorMatrix type="matrix" values="0 0 0 0 0 0 0 0 0 0 0 0 0 0 0 0 0 0 0.25 0"/>
<feBlend mode="normal" in2="BackgroundImageFix" result="effect1_dropShadow_1_32"/>
<feBlend mode="normal" in="SourceGraphic" in2="effect1_dropShadow_1_32" result="shape"/>
</filter>
<filter id="filter4_d_1_32" x="320" y="361" width="245" height="177" filterUnits="userSpaceOnUse" color-interpolation-filters="sRGB">
<feFlood flood-opacity="0" result="BackgroundImageFix"/>
<feColorMatrix in="SourceAlpha" type="matrix" values="0 0 0 0 0 0 0 0 0 0 0 0 0 0 0 0 0 0 127 0" result="hardAlpha"/>
<feOffset dy="10"/>
<feGaussianBlur stdDeviation="5"/>
<feComposite in2="hardAlpha" operator="out"/>
<feColorMatrix type="matrix" values="0 0 0 0 0 0 0 0 0 0 0 0 0 0 0 0 0 0 0.25 0"/>
<feBlend mode="normal" in2="BackgroundImageFix" result="effect1_dropShadow_1_32"/>
<feBlend mode="normal" in="SourceGraphic" in2="effect1_dropShadow_1_32" result="shape"/>
</filter>
<filter id="filter5_d_1_32" x="573" y="361" width="137" height="177" filterUnits="userSpaceOnUse" color-interpolation-filters="sRGB">
<feFlood flood-opacity="0" result="BackgroundImageFix"/>
<feColorMatrix in="SourceAlpha" type="matrix" values="0 0 0 0 0 0 0 0 0 0 0 0 0 0 0 0 0 0 127 0" result="hardAlpha"/>
<feOffset dy="10"/>
<feGaussianBlur stdDeviation="5"/>
<feComposite in2="hardAlpha" operator="out"/>
<feColorMatrix type="matrix" values="0 0 0 0 0 0 0 0 0 0 0 0 0 0 0 0 0 0 0.25 0"/>
<feBlend mode="normal" in2="BackgroundImageFix" result="effect1_dropShadow_1_32"/>
<feBlend mode="normal" in="SourceGraphic" in2="effect1_dropShadow_1_32" result="shape"/>
</filter>
<filter id="filter6_d_1_32" x="773" y="134" width="245" height="145" filterUnits="userSpaceOnUse" color-interpolation-filters="sRGB">
<feFlood flood-opacity="0" result="BackgroundImageFix"/>
<feColorMatrix in="SourceAlpha" type="matrix" values="0 0 0 0 0 0 0 0 0 0 0 0 0 0 0 0 0 0 127 0" result="hardAlpha"/>
<feOffset dy="10"/>
<feGaussianBlur stdDeviation="5"/>
<feComposite in2="hardAlpha" operator="out"/>
<feColorMatrix type="matrix" values="0 0 0 0 0 0 0 0 0 0 0 0 0 0 0 0 0 0 0.25 0"/>
<feBlend mode="normal" in2="BackgroundImageFix" result="effect1_dropShadow_1_32"/>
<feBlend mode="normal" in="SourceGraphic" in2="effect1_dropShadow_1_32" result="shape"/>
</filter>
<filter id="filter7_d_1_32" x="174.004" y="537.004" width="257.15" height="241.632" filterUnits="userSpaceOnUse" color-interpolation-filters="sRGB">
<feFlood flood-opacity="0" result="BackgroundImageFix"/>
<feColorMatrix in="SourceAlpha" type="matrix" values="0 0 0 0 0 0 0 0 0 0 0 0 0 0 0 0 0 0 127 0" result="hardAlpha"/>
<feOffset dy="4"/>
<feGaussianBlur stdDeviation="12.5"/>
<feComposite in2="hardAlpha" operator="out"/>
<feColorMatrix type="matrix" values="0 0 0 0 0 0 0 0 0 0 0 0 0 0 0 0 0 0 0.15 0"/>
<feBlend mode="normal" in2="BackgroundImageFix" result="effect1_dropShadow_1_32"/>
<feBlend mode="normal" in="SourceGraphic" in2="effect1_dropShadow_1_32" result="shape"/>
</filter>
<filter id="filter8_d_1_32" x="0.628265" y="308.573" width="250.941" height="245.608" filterUnits="userSpaceOnUse" color-interpolation-filters="sRGB">
<feFlood flood-opacity="0" result="BackgroundImageFix"/>
<feColorMatrix in="SourceAlpha" type="matrix" values="0 0 0 0 0 0 0 0 0 0 0 0 0 0 0 0 0 0 127 0" result="hardAlpha"/>
<feOffset dy="20"/>
<feGaussianBlur stdDeviation="22.5"/>
<feComposite in2="hardAlpha" operator="out"/>
<feColorMatrix type="matrix" values="0 0 0 0 0.239216 0 0 0 0 0.411765 0 0 0 0 0.768627 0 0 0 0.5 0"/>
<feBlend mode="normal" in2="BackgroundImageFix" result="effect1_dropShadow_1_32"/>
<feBlend mode="normal" in="SourceGraphic" in2="effect1_dropShadow_1_32" result="shape"/>
</filter>
<filter id="filter9_d_1_32" x="958.331" y="47.8829" width="168.357" height="164.819" filterUnits="userSpaceOnUse" color-interpolation-filters="sRGB">
<feFlood flood-opacity="0" result="BackgroundImageFix"/>
<feColorMatrix in="SourceAlpha" type="matrix" values="0 0 0 0 0 0 0 0 0 0 0 0 0 0 0 0 0 0 127 0" result="hardAlpha"/>
<feOffset dy="10"/>
<feGaussianBlur stdDeviation="17"/>
<feComposite in2="hardAlpha" operator="out"/>
<feColorMatrix type="matrix" values="0 0 0 0 0.239216 0 0 0 0 0.411765 0 0 0 0 0.768627 0 0 0 0.5 0"/>
<feBlend mode="normal" in2="BackgroundImageFix" result="effect1_dropShadow_1_32"/>
<feBlend mode="normal" in="SourceGraphic" in2="effect1_dropShadow_1_32" result="shape"/>
</filter>
</defs>
</svg>
